<?xml version="1.0" encoding="UTF-8" standalone="no"?>
<!DOCTYPE svg PUBLIC "-//W3C//DTD SVG 1.1//EN"
 "http://www.w3.org/Graphics/SVG/1.1/DTD/svg11.dtd">
<!-- Generated by graphviz version 2.40.1 (0)
 -->
<!-- Title: %3 Pages: 1 -->
<svg width="881pt" height="513pt"
 viewBox="0.00 0.00 881.00 513.00" xmlns="http://www.w3.org/2000/svg" xmlns:xlink="http://www.w3.org/1999/xlink">
<g id="graph0" class="graph" transform="scale(1 1) rotate(0) translate(4 509)">
<title>%3</title>
<polygon fill="#ffffff" stroke="transparent" points="-4,4 -4,-509 877,-509 877,4 -4,4"/>
<g id="clust1" class="cluster">
<title>cluster__samsung_pit</title>
<polygon fill="none" stroke="#000000" stroke-dasharray="1,5" points="169,-8 169,-497 865,-497 865,-8 169,-8"/>
<text text-anchor="middle" x="517" y="-481.8" font-family="Times,serif" font-size="14.00" fill="#000000">SamsungPit</text>
</g>
<g id="clust2" class="cluster">
<title>cluster__partition</title>
<polygon fill="none" stroke="#000000" stroke-dasharray="1,5" points="532,-70 532,-391 857,-391 857,-70 532,-70"/>
<text text-anchor="middle" x="694.5" y="-375.8" font-family="Times,serif" font-size="14.00" fill="#000000">SamsungPit::Partition</text>
</g>
<!-- samsung_pit__seq -->
<g id="node1" class="node">
<title>samsung_pit__seq</title>
<polygon fill="#e0ffe0" stroke="transparent" points="185.5,-440 185.5,-461 216.5,-461 216.5,-440 185.5,-440"/>
<polygon fill="none" stroke="#000000" points="185.5,-440 185.5,-461 216.5,-461 216.5,-440 185.5,-440"/>
<text text-anchor="start" x="188.5" y="-446.8" font-family="Times,serif" font-size="14.00" fill="#000000">pos</text>
<polygon fill="#e0ffe0" stroke="transparent" points="216.5,-440 216.5,-461 250.5,-461 250.5,-440 216.5,-440"/>
<polygon fill="none" stroke="#000000" points="216.5,-440 216.5,-461 250.5,-461 250.5,-440 216.5,-440"/>
<text text-anchor="start" x="219.5" y="-446.8" font-family="Times,serif" font-size="14.00" fill="#000000">size</text>
<polygon fill="#e0ffe0" stroke="transparent" points="250.5,-440 250.5,-461 342.5,-461 342.5,-440 250.5,-440"/>
<polygon fill="none" stroke="#000000" points="250.5,-440 250.5,-461 342.5,-461 342.5,-440 250.5,-440"/>
<text text-anchor="start" x="280.5" y="-446.8" font-family="Times,serif" font-size="14.00" fill="#000000">type</text>
<polygon fill="#e0ffe0" stroke="transparent" points="342.5,-440 342.5,-461 496.5,-461 496.5,-440 342.5,-440"/>
<polygon fill="none" stroke="#000000" points="342.5,-440 342.5,-461 496.5,-461 496.5,-440 342.5,-440"/>
<text text-anchor="start" x="412.5" y="-446.8" font-family="Times,serif" font-size="14.00" fill="#000000">id</text>
<polygon fill="none" stroke="#000000" points="185.5,-419 185.5,-440 216.5,-440 216.5,-419 185.5,-419"/>
<text text-anchor="start" x="196" y="-425.8" font-family="Times,serif" font-size="14.00" fill="#000000">0</text>
<polygon fill="none" stroke="#000000" points="216.5,-419 216.5,-440 250.5,-440 250.5,-419 216.5,-419"/>
<text text-anchor="start" x="228.5" y="-425.8" font-family="Times,serif" font-size="14.00" fill="#000000">4</text>
<polygon fill="none" stroke="#000000" points="250.5,-419 250.5,-440 342.5,-440 342.5,-419 250.5,-419"/>
<text text-anchor="start" x="253.5" y="-425.8" font-family="Times,serif" font-size="14.00" fill="#000000">76 98 34 12</text>
<polygon fill="none" stroke="#000000" points="342.5,-419 342.5,-440 496.5,-440 496.5,-419 342.5,-419"/>
<text text-anchor="start" x="398" y="-425.8" font-family="Times,serif" font-size="14.00" fill="#000000">magic</text>
<polygon fill="none" stroke="#000000" points="185.5,-398 185.5,-419 216.5,-419 216.5,-398 185.5,-398"/>
<text text-anchor="start" x="196" y="-404.8" font-family="Times,serif" font-size="14.00" fill="#000000">4</text>
<polygon fill="none" stroke="#000000" points="216.5,-398 216.5,-419 250.5,-419 250.5,-398 216.5,-398"/>
<text text-anchor="start" x="228.5" y="-404.8" font-family="Times,serif" font-size="14.00" fill="#000000">4</text>
<polygon fill="none" stroke="#000000" points="250.5,-398 250.5,-419 342.5,-419 342.5,-398 250.5,-398"/>
<text text-anchor="start" x="281" y="-404.8" font-family="Times,serif" font-size="14.00" fill="#000000">u4le</text>
<polygon fill="none" stroke="#000000" points="342.5,-398 342.5,-419 496.5,-419 496.5,-398 342.5,-398"/>
<text text-anchor="start" x="377" y="-404.8" font-family="Times,serif" font-size="14.00" fill="#000000">entry_count</text>
<polygon fill="none" stroke="#000000" points="185.5,-377 185.5,-398 216.5,-398 216.5,-377 185.5,-377"/>
<text text-anchor="start" x="196" y="-383.8" font-family="Times,serif" font-size="14.00" fill="#000000">8</text>
<polygon fill="none" stroke="#000000" points="216.5,-377 216.5,-398 250.5,-398 250.5,-377 216.5,-377"/>
<text text-anchor="start" x="228.5" y="-383.8" font-family="Times,serif" font-size="14.00" fill="#000000">4</text>
<polygon fill="none" stroke="#000000" points="250.5,-377 250.5,-398 342.5,-398 342.5,-377 250.5,-377"/>
<text text-anchor="start" x="281" y="-383.8" font-family="Times,serif" font-size="14.00" fill="#000000">u4le</text>
<polygon fill="none" stroke="#000000" points="342.5,-377 342.5,-398 496.5,-398 496.5,-377 342.5,-377"/>
<text text-anchor="start" x="382.5" y="-383.8" font-family="Times,serif" font-size="14.00" fill="#000000">unknown1</text>
<polygon fill="none" stroke="#000000" points="185.5,-356 185.5,-377 216.5,-377 216.5,-356 185.5,-356"/>
<text text-anchor="start" x="191.5" y="-362.8" font-family="Times,serif" font-size="14.00" fill="#000000">12</text>
<polygon fill="none" stroke="#000000" points="216.5,-356 216.5,-377 250.5,-377 250.5,-356 216.5,-356"/>
<text text-anchor="start" x="228.5" y="-362.8" font-family="Times,serif" font-size="14.00" fill="#000000">4</text>
<polygon fill="none" stroke="#000000" points="250.5,-356 250.5,-377 342.5,-377 342.5,-356 250.5,-356"/>
<text text-anchor="start" x="281" y="-362.8" font-family="Times,serif" font-size="14.00" fill="#000000">u4le</text>
<polygon fill="none" stroke="#000000" points="342.5,-356 342.5,-377 496.5,-377 496.5,-356 342.5,-356"/>
<text text-anchor="start" x="382.5" y="-362.8" font-family="Times,serif" font-size="14.00" fill="#000000">unknown2</text>
<polygon fill="none" stroke="#000000" points="185.5,-335 185.5,-356 216.5,-356 216.5,-335 185.5,-335"/>
<text text-anchor="start" x="191.5" y="-341.8" font-family="Times,serif" font-size="14.00" fill="#000000">16</text>
<polygon fill="none" stroke="#000000" points="216.5,-335 216.5,-356 250.5,-356 250.5,-335 216.5,-335"/>
<text text-anchor="start" x="228.5" y="-341.8" font-family="Times,serif" font-size="14.00" fill="#000000">2</text>
<polygon fill="none" stroke="#000000" points="250.5,-335 250.5,-356 342.5,-356 342.5,-335 250.5,-335"/>
<text text-anchor="start" x="281" y="-341.8" font-family="Times,serif" font-size="14.00" fill="#000000">u2le</text>
<polygon fill="none" stroke="#000000" points="342.5,-335 342.5,-356 496.5,-356 496.5,-335 342.5,-335"/>
<text text-anchor="start" x="382.5" y="-341.8" font-family="Times,serif" font-size="14.00" fill="#000000">unknown3</text>
<polygon fill="none" stroke="#000000" points="185.5,-314 185.5,-335 216.5,-335 216.5,-314 185.5,-314"/>
<text text-anchor="start" x="191.5" y="-320.8" font-family="Times,serif" font-size="14.00" fill="#000000">18</text>
<polygon fill="none" stroke="#000000" points="216.5,-314 216.5,-335 250.5,-335 250.5,-314 216.5,-314"/>
<text text-anchor="start" x="228.5" y="-320.8" font-family="Times,serif" font-size="14.00" fill="#000000">2</text>
<polygon fill="none" stroke="#000000" points="250.5,-314 250.5,-335 342.5,-335 342.5,-314 250.5,-314"/>
<text text-anchor="start" x="281" y="-320.8" font-family="Times,serif" font-size="14.00" fill="#000000">u2le</text>
<polygon fill="none" stroke="#000000" points="342.5,-314 342.5,-335 496.5,-335 496.5,-314 342.5,-314"/>
<text text-anchor="start" x="382.5" y="-320.8" font-family="Times,serif" font-size="14.00" fill="#000000">unknown4</text>
<polygon fill="none" stroke="#000000" points="185.5,-293 185.5,-314 216.5,-314 216.5,-293 185.5,-293"/>
<text text-anchor="start" x="191.5" y="-299.8" font-family="Times,serif" font-size="14.00" fill="#000000">20</text>
<polygon fill="none" stroke="#000000" points="216.5,-293 216.5,-314 250.5,-314 250.5,-293 216.5,-293"/>
<text text-anchor="start" x="228.5" y="-299.8" font-family="Times,serif" font-size="14.00" fill="#000000">2</text>
<polygon fill="none" stroke="#000000" points="250.5,-293 250.5,-314 342.5,-314 342.5,-293 250.5,-293"/>
<text text-anchor="start" x="281" y="-299.8" font-family="Times,serif" font-size="14.00" fill="#000000">u2le</text>
<polygon fill="none" stroke="#000000" points="342.5,-293 342.5,-314 496.5,-314 496.5,-293 342.5,-293"/>
<text text-anchor="start" x="382.5" y="-299.8" font-family="Times,serif" font-size="14.00" fill="#000000">unknown5</text>
<polygon fill="none" stroke="#000000" points="185.5,-272 185.5,-293 216.5,-293 216.5,-272 185.5,-272"/>
<text text-anchor="start" x="191.5" y="-278.8" font-family="Times,serif" font-size="14.00" fill="#000000">22</text>
<polygon fill="none" stroke="#000000" points="216.5,-272 216.5,-293 250.5,-293 250.5,-272 216.5,-272"/>
<text text-anchor="start" x="228.5" y="-278.8" font-family="Times,serif" font-size="14.00" fill="#000000">2</text>
<polygon fill="none" stroke="#000000" points="250.5,-272 250.5,-293 342.5,-293 342.5,-272 250.5,-272"/>
<text text-anchor="start" x="281" y="-278.8" font-family="Times,serif" font-size="14.00" fill="#000000">u2le</text>
<polygon fill="none" stroke="#000000" points="342.5,-272 342.5,-293 496.5,-293 496.5,-272 342.5,-272"/>
<text text-anchor="start" x="382.5" y="-278.8" font-family="Times,serif" font-size="14.00" fill="#000000">unknown6</text>
<polygon fill="none" stroke="#000000" points="185.5,-251 185.5,-272 216.5,-272 216.5,-251 185.5,-251"/>
<text text-anchor="start" x="191.5" y="-257.8" font-family="Times,serif" font-size="14.00" fill="#000000">24</text>
<polygon fill="none" stroke="#000000" points="216.5,-251 216.5,-272 250.5,-272 250.5,-251 216.5,-251"/>
<text text-anchor="start" x="228.5" y="-257.8" font-family="Times,serif" font-size="14.00" fill="#000000">2</text>
<polygon fill="none" stroke="#000000" points="250.5,-251 250.5,-272 342.5,-272 342.5,-251 250.5,-251"/>
<text text-anchor="start" x="281" y="-257.8" font-family="Times,serif" font-size="14.00" fill="#000000">u2le</text>
<polygon fill="none" stroke="#000000" points="342.5,-251 342.5,-272 496.5,-272 496.5,-251 342.5,-251"/>
<text text-anchor="start" x="382.5" y="-257.8" font-family="Times,serif" font-size="14.00" fill="#000000">unknown7</text>
<polygon fill="none" stroke="#000000" points="185.5,-230 185.5,-251 216.5,-251 216.5,-230 185.5,-230"/>
<text text-anchor="start" x="191.5" y="-236.8" font-family="Times,serif" font-size="14.00" fill="#000000">26</text>
<polygon fill="none" stroke="#000000" points="216.5,-230 216.5,-251 250.5,-251 250.5,-230 216.5,-230"/>
<text text-anchor="start" x="228.5" y="-236.8" font-family="Times,serif" font-size="14.00" fill="#000000">2</text>
<polygon fill="none" stroke="#000000" points="250.5,-230 250.5,-251 342.5,-251 342.5,-230 250.5,-230"/>
<text text-anchor="start" x="281" y="-236.8" font-family="Times,serif" font-size="14.00" fill="#000000">u2le</text>
<polygon fill="none" stroke="#000000" points="342.5,-230 342.5,-251 496.5,-251 496.5,-230 342.5,-230"/>
<text text-anchor="start" x="382.5" y="-236.8" font-family="Times,serif" font-size="14.00" fill="#000000">unknown8</text>
<polygon fill="none" stroke="#000000" points="185.5,-209 185.5,-230 216.5,-230 216.5,-209 185.5,-209"/>
<text text-anchor="start" x="191.5" y="-215.8" font-family="Times,serif" font-size="14.00" fill="#000000">28</text>
<polygon fill="none" stroke="#000000" points="216.5,-209 216.5,-230 250.5,-230 250.5,-209 216.5,-209"/>
<text text-anchor="start" x="219.5" y="-215.8" font-family="Times,serif" font-size="14.00" fill="#000000">132</text>
<polygon fill="none" stroke="#000000" points="250.5,-209 250.5,-230 342.5,-230 342.5,-209 250.5,-209"/>
<text text-anchor="start" x="265" y="-215.8" font-family="Times,serif" font-size="14.00" fill="#000000">Partition</text>
<polygon fill="none" stroke="#000000" points="342.5,-209 342.5,-230 496.5,-230 496.5,-209 342.5,-209"/>
<text text-anchor="start" x="384.5" y="-215.8" font-family="Times,serif" font-size="14.00" fill="#000000">partitions</text>
<polygon fill="none" stroke="#000000" points="185.5,-188 185.5,-209 496.5,-209 496.5,-188 185.5,-188"/>
<text text-anchor="start" x="250.5" y="-194.8" font-family="Times,serif" font-size="14.00" fill="#000000">repeat entry_count times</text>
<polygon fill="none" stroke="#000000" points="185.5,-167 185.5,-188 216.5,-188 216.5,-167 185.5,-167"/>
<text text-anchor="start" x="194" y="-173.8" font-family="Times,serif" font-size="14.00" fill="#000000">...</text>
<polygon fill="none" stroke="#000000" points="216.5,-167 216.5,-188 250.5,-188 250.5,-167 216.5,-167"/>
<text text-anchor="start" x="224" y="-173.8" font-family="Times,serif" font-size="14.00" fill="#000000">16</text>
<polygon fill="none" stroke="#000000" points="250.5,-167 250.5,-188 342.5,-188 342.5,-167 250.5,-167"/>
<text text-anchor="start" x="260.5" y="-173.8" font-family="Times,serif" font-size="14.00" fill="#000000">str(ASCII)</text>
<polygon fill="none" stroke="#000000" points="342.5,-167 342.5,-188 496.5,-188 496.5,-167 342.5,-167"/>
<text text-anchor="start" x="374" y="-173.8" font-family="Times,serif" font-size="14.00" fill="#000000">signer_name</text>
<polygon fill="none" stroke="#000000" points="185.5,-146 185.5,-167 216.5,-167 216.5,-146 185.5,-146"/>
<text text-anchor="start" x="194" y="-152.8" font-family="Times,serif" font-size="14.00" fill="#000000">...</text>
<polygon fill="none" stroke="#000000" points="216.5,-146 216.5,-167 250.5,-167 250.5,-146 216.5,-146"/>
<text text-anchor="start" x="224" y="-152.8" font-family="Times,serif" font-size="14.00" fill="#000000">16</text>
<polygon fill="none" stroke="#000000" points="250.5,-146 250.5,-167 342.5,-167 342.5,-146 250.5,-146"/>
<text text-anchor="start" x="260.5" y="-152.8" font-family="Times,serif" font-size="14.00" fill="#000000">str(ASCII)</text>
<polygon fill="none" stroke="#000000" points="342.5,-146 342.5,-167 496.5,-167 496.5,-146 342.5,-146"/>
<text text-anchor="start" x="381.5" y="-152.8" font-family="Times,serif" font-size="14.00" fill="#000000">signer_ver</text>
<polygon fill="none" stroke="#000000" points="185.5,-125 185.5,-146 216.5,-146 216.5,-125 185.5,-125"/>
<text text-anchor="start" x="194" y="-131.8" font-family="Times,serif" font-size="14.00" fill="#000000">...</text>
<polygon fill="none" stroke="#000000" points="216.5,-125 216.5,-146 250.5,-146 250.5,-125 216.5,-125"/>
<text text-anchor="start" x="224" y="-131.8" font-family="Times,serif" font-size="14.00" fill="#000000">32</text>
<polygon fill="none" stroke="#000000" points="250.5,-125 250.5,-146 342.5,-146 342.5,-125 250.5,-125"/>
<text text-anchor="start" x="260.5" y="-131.8" font-family="Times,serif" font-size="14.00" fill="#000000">str(ASCII)</text>
<polygon fill="none" stroke="#000000" points="342.5,-125 342.5,-146 496.5,-146 496.5,-125 342.5,-125"/>
<text text-anchor="start" x="372" y="-131.8" font-family="Times,serif" font-size="14.00" fill="#000000">firmware_ver</text>
<polygon fill="none" stroke="#000000" points="185.5,-104 185.5,-125 216.5,-125 216.5,-104 185.5,-104"/>
<text text-anchor="start" x="194" y="-110.8" font-family="Times,serif" font-size="14.00" fill="#000000">...</text>
<polygon fill="none" stroke="#000000" points="216.5,-104 216.5,-125 250.5,-125 250.5,-104 216.5,-104"/>
<text text-anchor="start" x="224" y="-110.8" font-family="Times,serif" font-size="14.00" fill="#000000">16</text>
<polygon fill="none" stroke="#000000" points="250.5,-104 250.5,-125 342.5,-125 342.5,-104 250.5,-104"/>
<text text-anchor="start" x="260.5" y="-110.8" font-family="Times,serif" font-size="14.00" fill="#000000">str(ASCII)</text>
<polygon fill="none" stroke="#000000" points="342.5,-104 342.5,-125 496.5,-125 496.5,-104 342.5,-104"/>
<text text-anchor="start" x="345.5" y="-110.8" font-family="Times,serif" font-size="14.00" fill="#000000">firmware_timestamp</text>
<polygon fill="none" stroke="#000000" points="185.5,-83 185.5,-104 216.5,-104 216.5,-83 185.5,-83"/>
<text text-anchor="start" x="194" y="-89.8" font-family="Times,serif" font-size="14.00" fill="#000000">...</text>
<polygon fill="none" stroke="#000000" points="216.5,-83 216.5,-104 250.5,-104 250.5,-83 216.5,-83"/>
<text text-anchor="start" x="224" y="-89.8" font-family="Times,serif" font-size="14.00" fill="#000000">32</text>
<polygon fill="none" stroke="#000000" points="250.5,-83 250.5,-104 342.5,-104 342.5,-83 250.5,-83"/>
<text text-anchor="start" x="260.5" y="-89.8" font-family="Times,serif" font-size="14.00" fill="#000000">str(ASCII)</text>
<polygon fill="none" stroke="#000000" points="342.5,-83 342.5,-104 496.5,-104 496.5,-83 342.5,-83"/>
<text text-anchor="start" x="372.5" y="-89.8" font-family="Times,serif" font-size="14.00" fill="#000000">phone_model</text>
<polygon fill="none" stroke="#000000" points="185.5,-62 185.5,-83 216.5,-83 216.5,-62 185.5,-62"/>
<text text-anchor="start" x="194" y="-68.8" font-family="Times,serif" font-size="14.00" fill="#000000">...</text>
<polygon fill="none" stroke="#000000" points="216.5,-62 216.5,-83 250.5,-83 250.5,-62 216.5,-62"/>
<text text-anchor="start" x="224" y="-68.8" font-family="Times,serif" font-size="14.00" fill="#000000">16</text>
<polygon fill="none" stroke="#000000" points="250.5,-62 250.5,-83 342.5,-83 342.5,-62 250.5,-62"/>
<text text-anchor="start" x="260.5" y="-68.8" font-family="Times,serif" font-size="14.00" fill="#000000">str(ASCII)</text>
<polygon fill="none" stroke="#000000" points="342.5,-62 342.5,-83 496.5,-83 496.5,-62 342.5,-62"/>
<text text-anchor="start" x="394" y="-68.8" font-family="Times,serif" font-size="14.00" fill="#000000">board1</text>
<polygon fill="none" stroke="#000000" points="185.5,-41 185.5,-62 216.5,-62 216.5,-41 185.5,-41"/>
<text text-anchor="start" x="194" y="-47.8" font-family="Times,serif" font-size="14.00" fill="#000000">...</text>
<polygon fill="none" stroke="#000000" points="216.5,-41 216.5,-62 250.5,-62 250.5,-41 216.5,-41"/>
<text text-anchor="start" x="224" y="-47.8" font-family="Times,serif" font-size="14.00" fill="#000000">16</text>
<polygon fill="none" stroke="#000000" points="250.5,-41 250.5,-62 342.5,-62 342.5,-41 250.5,-41"/>
<text text-anchor="start" x="260.5" y="-47.8" font-family="Times,serif" font-size="14.00" fill="#000000">str(ASCII)</text>
<polygon fill="none" stroke="#000000" points="342.5,-41 342.5,-62 496.5,-62 496.5,-41 342.5,-41"/>
<text text-anchor="start" x="394" y="-47.8" font-family="Times,serif" font-size="14.00" fill="#000000">board2</text>
<polygon fill="none" stroke="#000000" points="185.5,-20 185.5,-41 216.5,-41 216.5,-20 185.5,-20"/>
<text text-anchor="start" x="194" y="-26.8" font-family="Times,serif" font-size="14.00" fill="#000000">...</text>
<polygon fill="none" stroke="#000000" points="216.5,-20 216.5,-41 250.5,-41 250.5,-20 216.5,-20"/>
<text text-anchor="start" x="228.5" y="-26.8" font-family="Times,serif" font-size="14.00" fill="#000000">8</text>
<polygon fill="none" stroke="#000000" points="250.5,-20 250.5,-41 342.5,-41 342.5,-20 250.5,-20"/>
<text text-anchor="start" x="260.5" y="-26.8" font-family="Times,serif" font-size="14.00" fill="#000000">str(ASCII)</text>
<polygon fill="none" stroke="#000000" points="342.5,-20 342.5,-41 496.5,-41 496.5,-20 342.5,-20"/>
<text text-anchor="start" x="368" y="-26.8" font-family="Times,serif" font-size="14.00" fill="#000000">unknown_type</text>
</g>
<!-- samsung_pit__seq&#45;&gt;samsung_pit__seq -->
<g id="edge2" class="edge">
<title>samsung_pit__seq:entry_count_type&#45;&gt;samsung_pit__seq:partitions__repeat</title>
<path fill="none" stroke="#404040" d="M342.0741,-412.3746C205.4213,-414.2628 0,-397.314 0,-303.5 0,-234.0218 83.95,-206.7028 175.3274,-197.9716"/>
<polygon fill="#404040" stroke="#404040" points="175.6874,-201.4535 185.342,-197.0901 175.0735,-194.4805 175.6874,-201.4535"/>
</g>
<!-- partition__seq -->
<g id="node2" class="node">
<title>partition__seq</title>
<polygon fill="#e0ffe0" stroke="transparent" points="548.5,-334 548.5,-355 582.5,-355 582.5,-334 548.5,-334"/>
<polygon fill="none" stroke="#000000" points="548.5,-334 548.5,-355 582.5,-355 582.5,-334 548.5,-334"/>
<text text-anchor="start" x="553" y="-340.8" font-family="Times,serif" font-size="14.00" fill="#000000">pos</text>
<polygon fill="#e0ffe0" stroke="transparent" points="582.5,-334 582.5,-355 616.5,-355 616.5,-334 582.5,-334"/>
<polygon fill="none" stroke="#000000" points="582.5,-334 582.5,-355 616.5,-355 616.5,-334 582.5,-334"/>
<text text-anchor="start" x="585.5" y="-340.8" font-family="Times,serif" font-size="14.00" fill="#000000">size</text>
<polygon fill="#e0ffe0" stroke="transparent" points="616.5,-334 616.5,-355 694.5,-355 694.5,-334 616.5,-334"/>
<polygon fill="none" stroke="#000000" points="616.5,-334 616.5,-355 694.5,-355 694.5,-334 616.5,-334"/>
<text text-anchor="start" x="639.5" y="-340.8" font-family="Times,serif" font-size="14.00" fill="#000000">type</text>
<polygon fill="#e0ffe0" stroke="transparent" points="694.5,-334 694.5,-355 841.5,-355 841.5,-334 694.5,-334"/>
<polygon fill="none" stroke="#000000" points="694.5,-334 694.5,-355 841.5,-355 841.5,-334 694.5,-334"/>
<text text-anchor="start" x="761" y="-340.8" font-family="Times,serif" font-size="14.00" fill="#000000">id</text>
<polygon fill="none" stroke="#000000" points="548.5,-313 548.5,-334 582.5,-334 582.5,-313 548.5,-313"/>
<text text-anchor="start" x="560.5" y="-319.8" font-family="Times,serif" font-size="14.00" fill="#000000">0</text>
<polygon fill="none" stroke="#000000" points="582.5,-313 582.5,-334 616.5,-334 616.5,-313 582.5,-313"/>
<text text-anchor="start" x="594.5" y="-319.8" font-family="Times,serif" font-size="14.00" fill="#000000">4</text>
<polygon fill="none" stroke="#000000" points="616.5,-313 616.5,-334 694.5,-334 694.5,-313 616.5,-313"/>
<text text-anchor="start" x="640" y="-319.8" font-family="Times,serif" font-size="14.00" fill="#000000">u4le</text>
<polygon fill="none" stroke="#000000" points="694.5,-313 694.5,-334 841.5,-334 841.5,-313 694.5,-313"/>
<text text-anchor="start" x="725.5" y="-319.8" font-family="Times,serif" font-size="14.00" fill="#000000">binary_type</text>
<polygon fill="none" stroke="#000000" points="548.5,-292 548.5,-313 582.5,-313 582.5,-292 548.5,-292"/>
<text text-anchor="start" x="560.5" y="-298.8" font-family="Times,serif" font-size="14.00" fill="#000000">4</text>
<polygon fill="none" stroke="#000000" points="582.5,-292 582.5,-313 616.5,-313 616.5,-292 582.5,-292"/>
<text text-anchor="start" x="594.5" y="-298.8" font-family="Times,serif" font-size="14.00" fill="#000000">4</text>
<polygon fill="none" stroke="#000000" points="616.5,-292 616.5,-313 694.5,-313 694.5,-292 616.5,-292"/>
<text text-anchor="start" x="640" y="-298.8" font-family="Times,serif" font-size="14.00" fill="#000000">u4le</text>
<polygon fill="none" stroke="#000000" points="694.5,-292 694.5,-313 841.5,-313 841.5,-292 694.5,-292"/>
<text text-anchor="start" x="725.5" y="-298.8" font-family="Times,serif" font-size="14.00" fill="#000000">device_type</text>
<polygon fill="none" stroke="#000000" points="548.5,-271 548.5,-292 582.5,-292 582.5,-271 548.5,-271"/>
<text text-anchor="start" x="560.5" y="-277.8" font-family="Times,serif" font-size="14.00" fill="#000000">8</text>
<polygon fill="none" stroke="#000000" points="582.5,-271 582.5,-292 616.5,-292 616.5,-271 582.5,-271"/>
<text text-anchor="start" x="594.5" y="-277.8" font-family="Times,serif" font-size="14.00" fill="#000000">4</text>
<polygon fill="none" stroke="#000000" points="616.5,-271 616.5,-292 694.5,-292 694.5,-271 616.5,-271"/>
<text text-anchor="start" x="640" y="-277.8" font-family="Times,serif" font-size="14.00" fill="#000000">u4le</text>
<polygon fill="none" stroke="#000000" points="694.5,-271 694.5,-292 841.5,-292 841.5,-271 694.5,-271"/>
<text text-anchor="start" x="735" y="-277.8" font-family="Times,serif" font-size="14.00" fill="#000000">identifier</text>
<polygon fill="none" stroke="#000000" points="548.5,-250 548.5,-271 582.5,-271 582.5,-250 548.5,-250"/>
<text text-anchor="start" x="556" y="-256.8" font-family="Times,serif" font-size="14.00" fill="#000000">12</text>
<polygon fill="none" stroke="#000000" points="582.5,-250 582.5,-271 616.5,-271 616.5,-250 582.5,-250"/>
<text text-anchor="start" x="594.5" y="-256.8" font-family="Times,serif" font-size="14.00" fill="#000000">4</text>
<polygon fill="none" stroke="#000000" points="616.5,-250 616.5,-271 694.5,-271 694.5,-250 616.5,-250"/>
<text text-anchor="start" x="640" y="-256.8" font-family="Times,serif" font-size="14.00" fill="#000000">u4le</text>
<polygon fill="none" stroke="#000000" points="694.5,-250 694.5,-271 841.5,-271 841.5,-250 694.5,-250"/>
<text text-anchor="start" x="732" y="-256.8" font-family="Times,serif" font-size="14.00" fill="#000000">attributes</text>
<polygon fill="none" stroke="#000000" points="548.5,-229 548.5,-250 582.5,-250 582.5,-229 548.5,-229"/>
<text text-anchor="start" x="556" y="-235.8" font-family="Times,serif" font-size="14.00" fill="#000000">16</text>
<polygon fill="none" stroke="#000000" points="582.5,-229 582.5,-250 616.5,-250 616.5,-229 582.5,-229"/>
<text text-anchor="start" x="594.5" y="-235.8" font-family="Times,serif" font-size="14.00" fill="#000000">4</text>
<polygon fill="none" stroke="#000000" points="616.5,-229 616.5,-250 694.5,-250 694.5,-229 616.5,-229"/>
<text text-anchor="start" x="640" y="-235.8" font-family="Times,serif" font-size="14.00" fill="#000000">u4le</text>
<polygon fill="none" stroke="#000000" points="694.5,-229 694.5,-250 841.5,-250 841.5,-229 694.5,-229"/>
<text text-anchor="start" x="704" y="-235.8" font-family="Times,serif" font-size="14.00" fill="#000000">update_attributes</text>
<polygon fill="none" stroke="#000000" points="548.5,-208 548.5,-229 582.5,-229 582.5,-208 548.5,-208"/>
<text text-anchor="start" x="556" y="-214.8" font-family="Times,serif" font-size="14.00" fill="#000000">20</text>
<polygon fill="none" stroke="#000000" points="582.5,-208 582.5,-229 616.5,-229 616.5,-208 582.5,-208"/>
<text text-anchor="start" x="594.5" y="-214.8" font-family="Times,serif" font-size="14.00" fill="#000000">4</text>
<polygon fill="none" stroke="#000000" points="616.5,-208 616.5,-229 694.5,-229 694.5,-208 616.5,-208"/>
<text text-anchor="start" x="640" y="-214.8" font-family="Times,serif" font-size="14.00" fill="#000000">u4le</text>
<polygon fill="none" stroke="#000000" points="694.5,-208 694.5,-229 841.5,-229 841.5,-208 694.5,-208"/>
<text text-anchor="start" x="697.5" y="-214.8" font-family="Times,serif" font-size="14.00" fill="#000000">block_size_or_offset</text>
<polygon fill="none" stroke="#000000" points="548.5,-187 548.5,-208 582.5,-208 582.5,-187 548.5,-187"/>
<text text-anchor="start" x="556" y="-193.8" font-family="Times,serif" font-size="14.00" fill="#000000">24</text>
<polygon fill="none" stroke="#000000" points="582.5,-187 582.5,-208 616.5,-208 616.5,-187 582.5,-187"/>
<text text-anchor="start" x="594.5" y="-193.8" font-family="Times,serif" font-size="14.00" fill="#000000">4</text>
<polygon fill="none" stroke="#000000" points="616.5,-187 616.5,-208 694.5,-208 694.5,-187 616.5,-187"/>
<text text-anchor="start" x="640" y="-193.8" font-family="Times,serif" font-size="14.00" fill="#000000">u4le</text>
<polygon fill="none" stroke="#000000" points="694.5,-187 694.5,-208 841.5,-208 841.5,-187 694.5,-187"/>
<text text-anchor="start" x="725.5" y="-193.8" font-family="Times,serif" font-size="14.00" fill="#000000">block_count</text>
<polygon fill="none" stroke="#000000" points="548.5,-166 548.5,-187 582.5,-187 582.5,-166 548.5,-166"/>
<text text-anchor="start" x="556" y="-172.8" font-family="Times,serif" font-size="14.00" fill="#000000">28</text>
<polygon fill="none" stroke="#000000" points="582.5,-166 582.5,-187 616.5,-187 616.5,-166 582.5,-166"/>
<text text-anchor="start" x="594.5" y="-172.8" font-family="Times,serif" font-size="14.00" fill="#000000">4</text>
<polygon fill="none" stroke="#000000" points="616.5,-166 616.5,-187 694.5,-187 694.5,-166 616.5,-166"/>
<text text-anchor="start" x="640" y="-172.8" font-family="Times,serif" font-size="14.00" fill="#000000">u4le</text>
<polygon fill="none" stroke="#000000" points="694.5,-166 694.5,-187 841.5,-187 841.5,-166 694.5,-166"/>
<text text-anchor="start" x="733.5" y="-172.8" font-family="Times,serif" font-size="14.00" fill="#000000">file_offset</text>
<polygon fill="none" stroke="#000000" points="548.5,-145 548.5,-166 582.5,-166 582.5,-145 548.5,-145"/>
<text text-anchor="start" x="556" y="-151.8" font-family="Times,serif" font-size="14.00" fill="#000000">32</text>
<polygon fill="none" stroke="#000000" points="582.5,-145 582.5,-166 616.5,-166 616.5,-145 582.5,-145"/>
<text text-anchor="start" x="594.5" y="-151.8" font-family="Times,serif" font-size="14.00" fill="#000000">4</text>
<polygon fill="none" stroke="#000000" points="616.5,-145 616.5,-166 694.5,-166 694.5,-145 616.5,-145"/>
<text text-anchor="start" x="640" y="-151.8" font-family="Times,serif" font-size="14.00" fill="#000000">u4le</text>
<polygon fill="none" stroke="#000000" points="694.5,-145 694.5,-166 841.5,-166 841.5,-145 694.5,-145"/>
<text text-anchor="start" x="739.5" y="-151.8" font-family="Times,serif" font-size="14.00" fill="#000000">file_size</text>
<polygon fill="none" stroke="#000000" points="548.5,-124 548.5,-145 582.5,-145 582.5,-124 548.5,-124"/>
<text text-anchor="start" x="556" y="-130.8" font-family="Times,serif" font-size="14.00" fill="#000000">36</text>
<polygon fill="none" stroke="#000000" points="582.5,-124 582.5,-145 616.5,-145 616.5,-124 582.5,-124"/>
<text text-anchor="start" x="590" y="-130.8" font-family="Times,serif" font-size="14.00" fill="#000000">32</text>
<polygon fill="none" stroke="#000000" points="616.5,-124 616.5,-145 694.5,-145 694.5,-124 616.5,-124"/>
<text text-anchor="start" x="619.5" y="-130.8" font-family="Times,serif" font-size="14.00" fill="#000000">str(ASCII)</text>
<polygon fill="none" stroke="#000000" points="694.5,-124 694.5,-145 841.5,-145 841.5,-124 694.5,-124"/>
<text text-anchor="start" x="713.5" y="-130.8" font-family="Times,serif" font-size="14.00" fill="#000000">partition_name</text>
<polygon fill="none" stroke="#000000" points="548.5,-103 548.5,-124 582.5,-124 582.5,-103 548.5,-103"/>
<text text-anchor="start" x="556" y="-109.8" font-family="Times,serif" font-size="14.00" fill="#000000">68</text>
<polygon fill="none" stroke="#000000" points="582.5,-103 582.5,-124 616.5,-124 616.5,-103 582.5,-103"/>
<text text-anchor="start" x="590" y="-109.8" font-family="Times,serif" font-size="14.00" fill="#000000">32</text>
<polygon fill="none" stroke="#000000" points="616.5,-103 616.5,-124 694.5,-124 694.5,-103 616.5,-103"/>
<text text-anchor="start" x="619.5" y="-109.8" font-family="Times,serif" font-size="14.00" fill="#000000">str(ASCII)</text>
<polygon fill="none" stroke="#000000" points="694.5,-103 694.5,-124 841.5,-124 841.5,-103 694.5,-103"/>
<text text-anchor="start" x="717" y="-109.8" font-family="Times,serif" font-size="14.00" fill="#000000">flash_filename</text>
<polygon fill="none" stroke="#000000" points="548.5,-82 548.5,-103 582.5,-103 582.5,-82 548.5,-82"/>
<text text-anchor="start" x="551.5" y="-88.8" font-family="Times,serif" font-size="14.00" fill="#000000">100</text>
<polygon fill="none" stroke="#000000" points="582.5,-82 582.5,-103 616.5,-103 616.5,-82 582.5,-82"/>
<text text-anchor="start" x="590" y="-88.8" font-family="Times,serif" font-size="14.00" fill="#000000">32</text>
<polygon fill="none" stroke="#000000" points="616.5,-82 616.5,-103 694.5,-103 694.5,-82 616.5,-82"/>
<text text-anchor="start" x="619.5" y="-88.8" font-family="Times,serif" font-size="14.00" fill="#000000">str(ASCII)</text>
<polygon fill="none" stroke="#000000" points="694.5,-82 694.5,-103 841.5,-103 841.5,-82 694.5,-82"/>
<text text-anchor="start" x="720" y="-88.8" font-family="Times,serif" font-size="14.00" fill="#000000">fota_filename</text>
</g>
<!-- samsung_pit__seq&#45;&gt;partition__seq -->
<g id="edge1" class="edge">
<title>samsung_pit__seq:partitions_type&#45;&gt;partition__seq</title>
<path fill="none" stroke="#000000" stroke-width="2" d="M496.5,-219C507.2905,-219 518.4118,-219 529.6206,-219"/>
<polygon fill="#000000" stroke="#000000" stroke-width="2" points="529.9319,-222.5001 539.9319,-219 529.9319,-215.5001 529.9319,-222.5001"/>
</g>
</g>
</svg>
