<?xml version="1.0" encoding="UTF-8" standalone="no"?>
<!DOCTYPE svg PUBLIC "-//W3C//DTD SVG 1.1//EN"
 "http://www.w3.org/Graphics/SVG/1.1/DTD/svg11.dtd">
<!-- Generated by graphviz version 2.40.1 (0)
 -->
<!-- Title: %3 Pages: 1 -->
<svg width="866pt" height="420pt"
 viewBox="0.00 0.00 866.00 420.00" xmlns="http://www.w3.org/2000/svg" xmlns:xlink="http://www.w3.org/1999/xlink">
<g id="graph0" class="graph" transform="scale(1 1) rotate(0) translate(4 416)">
<title>%3</title>
<polygon fill="#ffffff" stroke="transparent" points="-4,4 -4,-416 862,-416 862,4 -4,4"/>
<g id="clust1" class="cluster">
<title>cluster__samsung_pit</title>
<polygon fill="none" stroke="#000000" stroke-dasharray="1,5" points="166,-44 166,-404 850,-404 850,-44 166,-44"/>
<text text-anchor="middle" x="508" y="-388.8" font-family="Times,serif" font-size="14.00" fill="#000000">SamsungPit</text>
</g>
<g id="clust2" class="cluster">
<title>cluster__partition</title>
<polygon fill="none" stroke="#000000" stroke-dasharray="1,5" points="517,-52 517,-373 842,-373 842,-52 517,-52"/>
<text text-anchor="middle" x="679.5" y="-357.8" font-family="Times,serif" font-size="14.00" fill="#000000">SamsungPit::Partition</text>
</g>
<!-- samsung_pit__seq -->
<g id="node1" class="node">
<title>samsung_pit__seq</title>
<polygon fill="#e0ffe0" stroke="transparent" points="182.5,-338 182.5,-359 213.5,-359 213.5,-338 182.5,-338"/>
<polygon fill="none" stroke="#000000" points="182.5,-338 182.5,-359 213.5,-359 213.5,-338 182.5,-338"/>
<text text-anchor="start" x="185.5" y="-344.8" font-family="Times,serif" font-size="14.00" fill="#000000">pos</text>
<polygon fill="#e0ffe0" stroke="transparent" points="213.5,-338 213.5,-359 247.5,-359 247.5,-338 213.5,-338"/>
<polygon fill="none" stroke="#000000" points="213.5,-338 213.5,-359 247.5,-359 247.5,-338 213.5,-338"/>
<text text-anchor="start" x="216.5" y="-344.8" font-family="Times,serif" font-size="14.00" fill="#000000">size</text>
<polygon fill="#e0ffe0" stroke="transparent" points="247.5,-338 247.5,-359 390.5,-359 390.5,-338 247.5,-338"/>
<polygon fill="none" stroke="#000000" points="247.5,-338 247.5,-359 390.5,-359 390.5,-338 247.5,-338"/>
<text text-anchor="start" x="303" y="-344.8" font-family="Times,serif" font-size="14.00" fill="#000000">type</text>
<polygon fill="#e0ffe0" stroke="transparent" points="390.5,-338 390.5,-359 481.5,-359 481.5,-338 390.5,-338"/>
<polygon fill="none" stroke="#000000" points="390.5,-338 390.5,-359 481.5,-359 481.5,-338 390.5,-338"/>
<text text-anchor="start" x="429" y="-344.8" font-family="Times,serif" font-size="14.00" fill="#000000">id</text>
<polygon fill="none" stroke="#000000" points="182.5,-317 182.5,-338 213.5,-338 213.5,-317 182.5,-317"/>
<text text-anchor="start" x="193" y="-323.8" font-family="Times,serif" font-size="14.00" fill="#000000">0</text>
<polygon fill="none" stroke="#000000" points="213.5,-317 213.5,-338 247.5,-338 247.5,-317 213.5,-317"/>
<text text-anchor="start" x="225.5" y="-323.8" font-family="Times,serif" font-size="14.00" fill="#000000">4</text>
<polygon fill="none" stroke="#000000" points="247.5,-317 247.5,-338 390.5,-338 390.5,-317 247.5,-317"/>
<text text-anchor="start" x="276" y="-323.8" font-family="Times,serif" font-size="14.00" fill="#000000">76 98 34 12</text>
<polygon fill="none" stroke="#000000" points="390.5,-317 390.5,-338 481.5,-338 481.5,-317 390.5,-317"/>
<text text-anchor="start" x="414.5" y="-323.8" font-family="Times,serif" font-size="14.00" fill="#000000">magic</text>
<polygon fill="none" stroke="#000000" points="182.5,-296 182.5,-317 213.5,-317 213.5,-296 182.5,-296"/>
<text text-anchor="start" x="193" y="-302.8" font-family="Times,serif" font-size="14.00" fill="#000000">4</text>
<polygon fill="none" stroke="#000000" points="213.5,-296 213.5,-317 247.5,-317 247.5,-296 213.5,-296"/>
<text text-anchor="start" x="225.5" y="-302.8" font-family="Times,serif" font-size="14.00" fill="#000000">4</text>
<polygon fill="none" stroke="#000000" points="247.5,-296 247.5,-317 390.5,-317 390.5,-296 247.5,-296"/>
<text text-anchor="start" x="303.5" y="-302.8" font-family="Times,serif" font-size="14.00" fill="#000000">u4le</text>
<polygon fill="none" stroke="#000000" points="390.5,-296 390.5,-317 481.5,-317 481.5,-296 390.5,-296"/>
<text text-anchor="start" x="393.5" y="-302.8" font-family="Times,serif" font-size="14.00" fill="#000000">entry_count</text>
<polygon fill="none" stroke="#000000" points="182.5,-275 182.5,-296 213.5,-296 213.5,-275 182.5,-275"/>
<text text-anchor="start" x="193" y="-281.8" font-family="Times,serif" font-size="14.00" fill="#000000">8</text>
<polygon fill="none" stroke="#000000" points="213.5,-275 213.5,-296 247.5,-296 247.5,-275 213.5,-275"/>
<text text-anchor="start" x="225.5" y="-281.8" font-family="Times,serif" font-size="14.00" fill="#000000">4</text>
<polygon fill="none" stroke="#000000" points="247.5,-275 247.5,-296 390.5,-296 390.5,-275 247.5,-275"/>
<text text-anchor="start" x="303.5" y="-281.8" font-family="Times,serif" font-size="14.00" fill="#000000">u4le</text>
<polygon fill="none" stroke="#000000" points="390.5,-275 390.5,-296 481.5,-296 481.5,-275 390.5,-275"/>
<text text-anchor="start" x="399" y="-281.8" font-family="Times,serif" font-size="14.00" fill="#000000">unknown1</text>
<polygon fill="none" stroke="#000000" points="182.5,-254 182.5,-275 213.5,-275 213.5,-254 182.5,-254"/>
<text text-anchor="start" x="188.5" y="-260.8" font-family="Times,serif" font-size="14.00" fill="#000000">12</text>
<polygon fill="none" stroke="#000000" points="213.5,-254 213.5,-275 247.5,-275 247.5,-254 213.5,-254"/>
<text text-anchor="start" x="225.5" y="-260.8" font-family="Times,serif" font-size="14.00" fill="#000000">4</text>
<polygon fill="none" stroke="#000000" points="247.5,-254 247.5,-275 390.5,-275 390.5,-254 247.5,-254"/>
<text text-anchor="start" x="303.5" y="-260.8" font-family="Times,serif" font-size="14.00" fill="#000000">u4le</text>
<polygon fill="none" stroke="#000000" points="390.5,-254 390.5,-275 481.5,-275 481.5,-254 390.5,-254"/>
<text text-anchor="start" x="399" y="-260.8" font-family="Times,serif" font-size="14.00" fill="#000000">unknown2</text>
<polygon fill="none" stroke="#000000" points="182.5,-233 182.5,-254 213.5,-254 213.5,-233 182.5,-233"/>
<text text-anchor="start" x="188.5" y="-239.8" font-family="Times,serif" font-size="14.00" fill="#000000">16</text>
<polygon fill="none" stroke="#000000" points="213.5,-233 213.5,-254 247.5,-254 247.5,-233 213.5,-233"/>
<text text-anchor="start" x="225.5" y="-239.8" font-family="Times,serif" font-size="14.00" fill="#000000">2</text>
<polygon fill="none" stroke="#000000" points="247.5,-233 247.5,-254 390.5,-254 390.5,-233 247.5,-233"/>
<text text-anchor="start" x="303.5" y="-239.8" font-family="Times,serif" font-size="14.00" fill="#000000">u2le</text>
<polygon fill="none" stroke="#000000" points="390.5,-233 390.5,-254 481.5,-254 481.5,-233 390.5,-233"/>
<text text-anchor="start" x="399" y="-239.8" font-family="Times,serif" font-size="14.00" fill="#000000">unknown3</text>
<polygon fill="none" stroke="#000000" points="182.5,-212 182.5,-233 213.5,-233 213.5,-212 182.5,-212"/>
<text text-anchor="start" x="188.5" y="-218.8" font-family="Times,serif" font-size="14.00" fill="#000000">18</text>
<polygon fill="none" stroke="#000000" points="213.5,-212 213.5,-233 247.5,-233 247.5,-212 213.5,-212"/>
<text text-anchor="start" x="225.5" y="-218.8" font-family="Times,serif" font-size="14.00" fill="#000000">2</text>
<polygon fill="none" stroke="#000000" points="247.5,-212 247.5,-233 390.5,-233 390.5,-212 247.5,-212"/>
<text text-anchor="start" x="303.5" y="-218.8" font-family="Times,serif" font-size="14.00" fill="#000000">u2le</text>
<polygon fill="none" stroke="#000000" points="390.5,-212 390.5,-233 481.5,-233 481.5,-212 390.5,-212"/>
<text text-anchor="start" x="399" y="-218.8" font-family="Times,serif" font-size="14.00" fill="#000000">unknown4</text>
<polygon fill="none" stroke="#000000" points="182.5,-191 182.5,-212 213.5,-212 213.5,-191 182.5,-191"/>
<text text-anchor="start" x="188.5" y="-197.8" font-family="Times,serif" font-size="14.00" fill="#000000">20</text>
<polygon fill="none" stroke="#000000" points="213.5,-191 213.5,-212 247.5,-212 247.5,-191 213.5,-191"/>
<text text-anchor="start" x="225.5" y="-197.8" font-family="Times,serif" font-size="14.00" fill="#000000">2</text>
<polygon fill="none" stroke="#000000" points="247.5,-191 247.5,-212 390.5,-212 390.5,-191 247.5,-191"/>
<text text-anchor="start" x="303.5" y="-197.8" font-family="Times,serif" font-size="14.00" fill="#000000">u2le</text>
<polygon fill="none" stroke="#000000" points="390.5,-191 390.5,-212 481.5,-212 481.5,-191 390.5,-191"/>
<text text-anchor="start" x="399" y="-197.8" font-family="Times,serif" font-size="14.00" fill="#000000">unknown5</text>
<polygon fill="none" stroke="#000000" points="182.5,-170 182.5,-191 213.5,-191 213.5,-170 182.5,-170"/>
<text text-anchor="start" x="188.5" y="-176.8" font-family="Times,serif" font-size="14.00" fill="#000000">22</text>
<polygon fill="none" stroke="#000000" points="213.5,-170 213.5,-191 247.5,-191 247.5,-170 213.5,-170"/>
<text text-anchor="start" x="225.5" y="-176.8" font-family="Times,serif" font-size="14.00" fill="#000000">2</text>
<polygon fill="none" stroke="#000000" points="247.5,-170 247.5,-191 390.5,-191 390.5,-170 247.5,-170"/>
<text text-anchor="start" x="303.5" y="-176.8" font-family="Times,serif" font-size="14.00" fill="#000000">u2le</text>
<polygon fill="none" stroke="#000000" points="390.5,-170 390.5,-191 481.5,-191 481.5,-170 390.5,-170"/>
<text text-anchor="start" x="399" y="-176.8" font-family="Times,serif" font-size="14.00" fill="#000000">unknown6</text>
<polygon fill="none" stroke="#000000" points="182.5,-149 182.5,-170 213.5,-170 213.5,-149 182.5,-149"/>
<text text-anchor="start" x="188.5" y="-155.8" font-family="Times,serif" font-size="14.00" fill="#000000">24</text>
<polygon fill="none" stroke="#000000" points="213.5,-149 213.5,-170 247.5,-170 247.5,-149 213.5,-149"/>
<text text-anchor="start" x="225.5" y="-155.8" font-family="Times,serif" font-size="14.00" fill="#000000">2</text>
<polygon fill="none" stroke="#000000" points="247.5,-149 247.5,-170 390.5,-170 390.5,-149 247.5,-149"/>
<text text-anchor="start" x="303.5" y="-155.8" font-family="Times,serif" font-size="14.00" fill="#000000">u2le</text>
<polygon fill="none" stroke="#000000" points="390.5,-149 390.5,-170 481.5,-170 481.5,-149 390.5,-149"/>
<text text-anchor="start" x="399" y="-155.8" font-family="Times,serif" font-size="14.00" fill="#000000">unknown7</text>
<polygon fill="none" stroke="#000000" points="182.5,-128 182.5,-149 213.5,-149 213.5,-128 182.5,-128"/>
<text text-anchor="start" x="188.5" y="-134.8" font-family="Times,serif" font-size="14.00" fill="#000000">26</text>
<polygon fill="none" stroke="#000000" points="213.5,-128 213.5,-149 247.5,-149 247.5,-128 213.5,-128"/>
<text text-anchor="start" x="225.5" y="-134.8" font-family="Times,serif" font-size="14.00" fill="#000000">2</text>
<polygon fill="none" stroke="#000000" points="247.5,-128 247.5,-149 390.5,-149 390.5,-128 247.5,-128"/>
<text text-anchor="start" x="303.5" y="-134.8" font-family="Times,serif" font-size="14.00" fill="#000000">u2le</text>
<polygon fill="none" stroke="#000000" points="390.5,-128 390.5,-149 481.5,-149 481.5,-128 390.5,-128"/>
<text text-anchor="start" x="399" y="-134.8" font-family="Times,serif" font-size="14.00" fill="#000000">unknown8</text>
<polygon fill="none" stroke="#000000" points="182.5,-107 182.5,-128 213.5,-128 213.5,-107 182.5,-107"/>
<text text-anchor="start" x="188.5" y="-113.8" font-family="Times,serif" font-size="14.00" fill="#000000">28</text>
<polygon fill="none" stroke="#000000" points="213.5,-107 213.5,-128 247.5,-128 247.5,-107 213.5,-107"/>
<text text-anchor="start" x="216.5" y="-113.8" font-family="Times,serif" font-size="14.00" fill="#000000">132</text>
<polygon fill="none" stroke="#000000" points="247.5,-107 247.5,-128 390.5,-128 390.5,-107 247.5,-107"/>
<text text-anchor="start" x="287.5" y="-113.8" font-family="Times,serif" font-size="14.00" fill="#000000">Partition</text>
<polygon fill="none" stroke="#000000" points="390.5,-107 390.5,-128 481.5,-128 481.5,-107 390.5,-107"/>
<text text-anchor="start" x="401" y="-113.8" font-family="Times,serif" font-size="14.00" fill="#000000">partitions</text>
<polygon fill="none" stroke="#000000" points="182.5,-86 182.5,-107 481.5,-107 481.5,-86 182.5,-86"/>
<text text-anchor="start" x="241.5" y="-92.8" font-family="Times,serif" font-size="14.00" fill="#000000">repeat entry_count times</text>
<polygon fill="none" stroke="#000000" points="182.5,-65 182.5,-86 213.5,-86 213.5,-65 182.5,-65"/>
<text text-anchor="start" x="191" y="-71.8" font-family="Times,serif" font-size="14.00" fill="#000000">...</text>
<polygon fill="none" stroke="#000000" points="213.5,-65 213.5,-86 247.5,-86 247.5,-65 213.5,-65"/>
<text text-anchor="start" x="225.5" y="-71.8" font-family="Times,serif" font-size="14.00" fill="#000000">0</text>
<polygon fill="none" stroke="#000000" points="247.5,-65 247.5,-86 390.5,-86 390.5,-65 247.5,-65"/>
<text text-anchor="start" x="250.5" y="-71.8" font-family="Times,serif" font-size="14.00" fill="#000000">SamsungSignature</text>
<polygon fill="none" stroke="#000000" points="390.5,-65 390.5,-86 481.5,-86 481.5,-65 390.5,-65"/>
<text text-anchor="start" x="401.5" y="-71.8" font-family="Times,serif" font-size="14.00" fill="#000000">signature</text>
</g>
<!-- samsung_pit__seq&#45;&gt;samsung_pit__seq -->
<g id="edge2" class="edge">
<title>samsung_pit__seq:entry_count_type&#45;&gt;samsung_pit__seq:partitions__repeat</title>
<path fill="none" stroke="#404040" d="M390.0949,-309.6075C254.6331,-314.4537 0,-302.6938 0,-201.5 0,-131.661 82.5919,-104.4202 172.0972,-95.8371"/>
<polygon fill="#404040" stroke="#404040" points="172.5336,-99.3123 182.1883,-94.9492 171.92,-92.3392 172.5336,-99.3123"/>
</g>
<!-- partition__seq -->
<g id="node2" class="node">
<title>partition__seq</title>
<polygon fill="#e0ffe0" stroke="transparent" points="533.5,-316 533.5,-337 567.5,-337 567.5,-316 533.5,-316"/>
<polygon fill="none" stroke="#000000" points="533.5,-316 533.5,-337 567.5,-337 567.5,-316 533.5,-316"/>
<text text-anchor="start" x="538" y="-322.8" font-family="Times,serif" font-size="14.00" fill="#000000">pos</text>
<polygon fill="#e0ffe0" stroke="transparent" points="567.5,-316 567.5,-337 601.5,-337 601.5,-316 567.5,-316"/>
<polygon fill="none" stroke="#000000" points="567.5,-316 567.5,-337 601.5,-337 601.5,-316 567.5,-316"/>
<text text-anchor="start" x="570.5" y="-322.8" font-family="Times,serif" font-size="14.00" fill="#000000">size</text>
<polygon fill="#e0ffe0" stroke="transparent" points="601.5,-316 601.5,-337 679.5,-337 679.5,-316 601.5,-316"/>
<polygon fill="none" stroke="#000000" points="601.5,-316 601.5,-337 679.5,-337 679.5,-316 601.5,-316"/>
<text text-anchor="start" x="624.5" y="-322.8" font-family="Times,serif" font-size="14.00" fill="#000000">type</text>
<polygon fill="#e0ffe0" stroke="transparent" points="679.5,-316 679.5,-337 826.5,-337 826.5,-316 679.5,-316"/>
<polygon fill="none" stroke="#000000" points="679.5,-316 679.5,-337 826.5,-337 826.5,-316 679.5,-316"/>
<text text-anchor="start" x="746" y="-322.8" font-family="Times,serif" font-size="14.00" fill="#000000">id</text>
<polygon fill="none" stroke="#000000" points="533.5,-295 533.5,-316 567.5,-316 567.5,-295 533.5,-295"/>
<text text-anchor="start" x="545.5" y="-301.8" font-family="Times,serif" font-size="14.00" fill="#000000">0</text>
<polygon fill="none" stroke="#000000" points="567.5,-295 567.5,-316 601.5,-316 601.5,-295 567.5,-295"/>
<text text-anchor="start" x="579.5" y="-301.8" font-family="Times,serif" font-size="14.00" fill="#000000">4</text>
<polygon fill="none" stroke="#000000" points="601.5,-295 601.5,-316 679.5,-316 679.5,-295 601.5,-295"/>
<text text-anchor="start" x="625" y="-301.8" font-family="Times,serif" font-size="14.00" fill="#000000">u4le</text>
<polygon fill="none" stroke="#000000" points="679.5,-295 679.5,-316 826.5,-316 826.5,-295 679.5,-295"/>
<text text-anchor="start" x="710.5" y="-301.8" font-family="Times,serif" font-size="14.00" fill="#000000">binary_type</text>
<polygon fill="none" stroke="#000000" points="533.5,-274 533.5,-295 567.5,-295 567.5,-274 533.5,-274"/>
<text text-anchor="start" x="545.5" y="-280.8" font-family="Times,serif" font-size="14.00" fill="#000000">4</text>
<polygon fill="none" stroke="#000000" points="567.5,-274 567.5,-295 601.5,-295 601.5,-274 567.5,-274"/>
<text text-anchor="start" x="579.5" y="-280.8" font-family="Times,serif" font-size="14.00" fill="#000000">4</text>
<polygon fill="none" stroke="#000000" points="601.5,-274 601.5,-295 679.5,-295 679.5,-274 601.5,-274"/>
<text text-anchor="start" x="625" y="-280.8" font-family="Times,serif" font-size="14.00" fill="#000000">u4le</text>
<polygon fill="none" stroke="#000000" points="679.5,-274 679.5,-295 826.5,-295 826.5,-274 679.5,-274"/>
<text text-anchor="start" x="710.5" y="-280.8" font-family="Times,serif" font-size="14.00" fill="#000000">device_type</text>
<polygon fill="none" stroke="#000000" points="533.5,-253 533.5,-274 567.5,-274 567.5,-253 533.5,-253"/>
<text text-anchor="start" x="545.5" y="-259.8" font-family="Times,serif" font-size="14.00" fill="#000000">8</text>
<polygon fill="none" stroke="#000000" points="567.5,-253 567.5,-274 601.5,-274 601.5,-253 567.5,-253"/>
<text text-anchor="start" x="579.5" y="-259.8" font-family="Times,serif" font-size="14.00" fill="#000000">4</text>
<polygon fill="none" stroke="#000000" points="601.5,-253 601.5,-274 679.5,-274 679.5,-253 601.5,-253"/>
<text text-anchor="start" x="625" y="-259.8" font-family="Times,serif" font-size="14.00" fill="#000000">u4le</text>
<polygon fill="none" stroke="#000000" points="679.5,-253 679.5,-274 826.5,-274 826.5,-253 679.5,-253"/>
<text text-anchor="start" x="720" y="-259.8" font-family="Times,serif" font-size="14.00" fill="#000000">identifier</text>
<polygon fill="none" stroke="#000000" points="533.5,-232 533.5,-253 567.5,-253 567.5,-232 533.5,-232"/>
<text text-anchor="start" x="541" y="-238.8" font-family="Times,serif" font-size="14.00" fill="#000000">12</text>
<polygon fill="none" stroke="#000000" points="567.5,-232 567.5,-253 601.5,-253 601.5,-232 567.5,-232"/>
<text text-anchor="start" x="579.5" y="-238.8" font-family="Times,serif" font-size="14.00" fill="#000000">4</text>
<polygon fill="none" stroke="#000000" points="601.5,-232 601.5,-253 679.5,-253 679.5,-232 601.5,-232"/>
<text text-anchor="start" x="625" y="-238.8" font-family="Times,serif" font-size="14.00" fill="#000000">u4le</text>
<polygon fill="none" stroke="#000000" points="679.5,-232 679.5,-253 826.5,-253 826.5,-232 679.5,-232"/>
<text text-anchor="start" x="717" y="-238.8" font-family="Times,serif" font-size="14.00" fill="#000000">attributes</text>
<polygon fill="none" stroke="#000000" points="533.5,-211 533.5,-232 567.5,-232 567.5,-211 533.5,-211"/>
<text text-anchor="start" x="541" y="-217.8" font-family="Times,serif" font-size="14.00" fill="#000000">16</text>
<polygon fill="none" stroke="#000000" points="567.5,-211 567.5,-232 601.5,-232 601.5,-211 567.5,-211"/>
<text text-anchor="start" x="579.5" y="-217.8" font-family="Times,serif" font-size="14.00" fill="#000000">4</text>
<polygon fill="none" stroke="#000000" points="601.5,-211 601.5,-232 679.5,-232 679.5,-211 601.5,-211"/>
<text text-anchor="start" x="625" y="-217.8" font-family="Times,serif" font-size="14.00" fill="#000000">u4le</text>
<polygon fill="none" stroke="#000000" points="679.5,-211 679.5,-232 826.5,-232 826.5,-211 679.5,-211"/>
<text text-anchor="start" x="689" y="-217.8" font-family="Times,serif" font-size="14.00" fill="#000000">update_attributes</text>
<polygon fill="none" stroke="#000000" points="533.5,-190 533.5,-211 567.5,-211 567.5,-190 533.5,-190"/>
<text text-anchor="start" x="541" y="-196.8" font-family="Times,serif" font-size="14.00" fill="#000000">20</text>
<polygon fill="none" stroke="#000000" points="567.5,-190 567.5,-211 601.5,-211 601.5,-190 567.5,-190"/>
<text text-anchor="start" x="579.5" y="-196.8" font-family="Times,serif" font-size="14.00" fill="#000000">4</text>
<polygon fill="none" stroke="#000000" points="601.5,-190 601.5,-211 679.5,-211 679.5,-190 601.5,-190"/>
<text text-anchor="start" x="625" y="-196.8" font-family="Times,serif" font-size="14.00" fill="#000000">u4le</text>
<polygon fill="none" stroke="#000000" points="679.5,-190 679.5,-211 826.5,-211 826.5,-190 679.5,-190"/>
<text text-anchor="start" x="682.5" y="-196.8" font-family="Times,serif" font-size="14.00" fill="#000000">block_size_or_offset</text>
<polygon fill="none" stroke="#000000" points="533.5,-169 533.5,-190 567.5,-190 567.5,-169 533.5,-169"/>
<text text-anchor="start" x="541" y="-175.8" font-family="Times,serif" font-size="14.00" fill="#000000">24</text>
<polygon fill="none" stroke="#000000" points="567.5,-169 567.5,-190 601.5,-190 601.5,-169 567.5,-169"/>
<text text-anchor="start" x="579.5" y="-175.8" font-family="Times,serif" font-size="14.00" fill="#000000">4</text>
<polygon fill="none" stroke="#000000" points="601.5,-169 601.5,-190 679.5,-190 679.5,-169 601.5,-169"/>
<text text-anchor="start" x="625" y="-175.8" font-family="Times,serif" font-size="14.00" fill="#000000">u4le</text>
<polygon fill="none" stroke="#000000" points="679.5,-169 679.5,-190 826.5,-190 826.5,-169 679.5,-169"/>
<text text-anchor="start" x="710.5" y="-175.8" font-family="Times,serif" font-size="14.00" fill="#000000">block_count</text>
<polygon fill="none" stroke="#000000" points="533.5,-148 533.5,-169 567.5,-169 567.5,-148 533.5,-148"/>
<text text-anchor="start" x="541" y="-154.8" font-family="Times,serif" font-size="14.00" fill="#000000">28</text>
<polygon fill="none" stroke="#000000" points="567.5,-148 567.5,-169 601.5,-169 601.5,-148 567.5,-148"/>
<text text-anchor="start" x="579.5" y="-154.8" font-family="Times,serif" font-size="14.00" fill="#000000">4</text>
<polygon fill="none" stroke="#000000" points="601.5,-148 601.5,-169 679.5,-169 679.5,-148 601.5,-148"/>
<text text-anchor="start" x="625" y="-154.8" font-family="Times,serif" font-size="14.00" fill="#000000">u4le</text>
<polygon fill="none" stroke="#000000" points="679.5,-148 679.5,-169 826.5,-169 826.5,-148 679.5,-148"/>
<text text-anchor="start" x="718.5" y="-154.8" font-family="Times,serif" font-size="14.00" fill="#000000">file_offset</text>
<polygon fill="none" stroke="#000000" points="533.5,-127 533.5,-148 567.5,-148 567.5,-127 533.5,-127"/>
<text text-anchor="start" x="541" y="-133.8" font-family="Times,serif" font-size="14.00" fill="#000000">32</text>
<polygon fill="none" stroke="#000000" points="567.5,-127 567.5,-148 601.5,-148 601.5,-127 567.5,-127"/>
<text text-anchor="start" x="579.5" y="-133.8" font-family="Times,serif" font-size="14.00" fill="#000000">4</text>
<polygon fill="none" stroke="#000000" points="601.5,-127 601.5,-148 679.5,-148 679.5,-127 601.5,-127"/>
<text text-anchor="start" x="625" y="-133.8" font-family="Times,serif" font-size="14.00" fill="#000000">u4le</text>
<polygon fill="none" stroke="#000000" points="679.5,-127 679.5,-148 826.5,-148 826.5,-127 679.5,-127"/>
<text text-anchor="start" x="724.5" y="-133.8" font-family="Times,serif" font-size="14.00" fill="#000000">file_size</text>
<polygon fill="none" stroke="#000000" points="533.5,-106 533.5,-127 567.5,-127 567.5,-106 533.5,-106"/>
<text text-anchor="start" x="541" y="-112.8" font-family="Times,serif" font-size="14.00" fill="#000000">36</text>
<polygon fill="none" stroke="#000000" points="567.5,-106 567.5,-127 601.5,-127 601.5,-106 567.5,-106"/>
<text text-anchor="start" x="575" y="-112.8" font-family="Times,serif" font-size="14.00" fill="#000000">32</text>
<polygon fill="none" stroke="#000000" points="601.5,-106 601.5,-127 679.5,-127 679.5,-106 601.5,-106"/>
<text text-anchor="start" x="604.5" y="-112.8" font-family="Times,serif" font-size="14.00" fill="#000000">str(ASCII)</text>
<polygon fill="none" stroke="#000000" points="679.5,-106 679.5,-127 826.5,-127 826.5,-106 679.5,-106"/>
<text text-anchor="start" x="698.5" y="-112.8" font-family="Times,serif" font-size="14.00" fill="#000000">partition_name</text>
<polygon fill="none" stroke="#000000" points="533.5,-85 533.5,-106 567.5,-106 567.5,-85 533.5,-85"/>
<text text-anchor="start" x="541" y="-91.8" font-family="Times,serif" font-size="14.00" fill="#000000">68</text>
<polygon fill="none" stroke="#000000" points="567.5,-85 567.5,-106 601.5,-106 601.5,-85 567.5,-85"/>
<text text-anchor="start" x="575" y="-91.8" font-family="Times,serif" font-size="14.00" fill="#000000">32</text>
<polygon fill="none" stroke="#000000" points="601.5,-85 601.5,-106 679.5,-106 679.5,-85 601.5,-85"/>
<text text-anchor="start" x="604.5" y="-91.8" font-family="Times,serif" font-size="14.00" fill="#000000">str(ASCII)</text>
<polygon fill="none" stroke="#000000" points="679.5,-85 679.5,-106 826.5,-106 826.5,-85 679.5,-85"/>
<text text-anchor="start" x="702" y="-91.8" font-family="Times,serif" font-size="14.00" fill="#000000">flash_filename</text>
<polygon fill="none" stroke="#000000" points="533.5,-64 533.5,-85 567.5,-85 567.5,-64 533.5,-64"/>
<text text-anchor="start" x="536.5" y="-70.8" font-family="Times,serif" font-size="14.00" fill="#000000">100</text>
<polygon fill="none" stroke="#000000" points="567.5,-64 567.5,-85 601.5,-85 601.5,-64 567.5,-64"/>
<text text-anchor="start" x="575" y="-70.8" font-family="Times,serif" font-size="14.00" fill="#000000">32</text>
<polygon fill="none" stroke="#000000" points="601.5,-64 601.5,-85 679.5,-85 679.5,-64 601.5,-64"/>
<text text-anchor="start" x="604.5" y="-70.8" font-family="Times,serif" font-size="14.00" fill="#000000">str(ASCII)</text>
<polygon fill="none" stroke="#000000" points="679.5,-64 679.5,-85 826.5,-85 826.5,-64 679.5,-64"/>
<text text-anchor="start" x="705" y="-70.8" font-family="Times,serif" font-size="14.00" fill="#000000">fota_filename</text>
</g>
<!-- samsung_pit__seq&#45;&gt;partition__seq -->
<g id="edge1" class="edge">
<title>samsung_pit__seq:partitions_type&#45;&gt;partition__seq</title>
<path fill="none" stroke="#000000" stroke-width="2" d="M481.5,-117C492.6912,-117 503.9759,-118.1513 515.1787,-120.1844"/>
<polygon fill="#000000" stroke="#000000" stroke-width="2" points="514.4998,-123.6179 524.9981,-122.1912 515.9015,-116.7596 514.4998,-123.6179"/>
</g>
<!-- samsung_signature__seq -->
<g id="node3" class="node">
<title>samsung_signature__seq</title>
<text text-anchor="middle" x="679.5" y="-14.3" font-family="Times,serif" font-size="14.00" fill="#000000">samsung_signature__seq</text>
</g>
<!-- samsung_pit__seq&#45;&gt;samsung_signature__seq -->
<g id="edge3" class="edge">
<title>samsung_pit__seq:signature_type&#45;&gt;samsung_signature__seq</title>
<path fill="none" stroke="#000000" stroke-width="2" d="M481.5,-75C501.3227,-75 498.8711,-56.0176 517,-48 534.3155,-40.3421 553.5029,-34.6388 572.4463,-30.3913"/>
<polygon fill="#000000" stroke="#000000" stroke-width="2" points="573.2613,-33.7964 582.319,-28.3001 571.8108,-26.9483 573.2613,-33.7964"/>
</g>
</g>
</svg>
